<svg width="515" height="89" viewBox="0 0 515 89" fill="none" xmlns="http://www.w3.org/2000/svg">
<circle cx="38.5016" cy="38.5016" r="37.0016" stroke="white" stroke-width="3"/>
<path d="M6.095 20.579L12.957 18.389L24.491 62.627L35.368 24.229H44.055L54.859 62.627L66.32 18.608L72.744 20.579L58.947 70H50.333L39.529 31.602L28.579 70H19.965L6.095 20.579Z" fill="white"/>
<path d="M3 37.8L39.2032 39.7645L74.5645 41.1677V42.2903L38.7823 41.729L3 42.2903V37.8Z" fill="white"/>
<line x1="70.1968" y1="42.2903" x2="70.1968" y2="40.8871" stroke="black" stroke-width="2"/>
<path d="M92.9 67H86.6V30.6H92.9V67ZM89.75 24.37C88.5367 24.37 87.4867 23.95 86.6 23.11C85.76 22.2233 85.34 21.1733 85.34 19.96C85.34 18.6067 85.7367 17.5333 86.53 16.74C87.3233 15.9467 88.3967 15.55 89.75 15.55C90.9633 15.55 91.99 15.9933 92.83 16.88C93.7167 17.72 94.16 18.7467 94.16 19.96C94.16 21.3133 93.7633 22.3867 92.97 23.18C92.1767 23.9733 91.1033 24.37 89.75 24.37ZM101.37 30.6H128.74V35.43L108.72 61.4H129.09V67H100.95V62.03L121.04 36.06H101.37V30.6ZM133.984 49.01C133.984 46.3033 134.404 43.7833 135.244 41.45C136.084 39.07 137.251 37.0167 138.744 35.29C140.284 33.5633 142.104 32.21 144.204 31.23C146.351 30.25 148.684 29.76 151.204 29.76C153.304 29.76 155.194 30.1333 156.874 30.88C158.601 31.58 160.094 32.4667 161.354 33.54V30.6H167.094V58.18C167.094 59.9533 167.514 61.12 168.354 61.68C169.241 62.1933 170.197 62.45 171.224 62.45L169.894 67.35C165.414 67.35 162.707 65.53 161.774 61.89C161.214 62.6367 160.561 63.3833 159.814 64.13C159.114 64.83 158.297 65.46 157.364 66.02C156.431 66.58 155.381 67.0233 154.214 67.35C153.047 67.6767 151.764 67.84 150.364 67.84C148.077 67.84 145.931 67.3967 143.924 66.51C141.964 65.6233 140.237 64.3633 138.744 62.73C137.297 61.0967 136.131 59.1367 135.244 56.85C134.404 54.5167 133.984 51.9033 133.984 49.01ZM151.764 62.24C153.537 62.24 155.217 61.82 156.804 60.98C158.391 60.14 159.721 59.0433 160.794 57.69V38.16C159.534 37.2733 158.134 36.5733 156.594 36.06C155.101 35.5 153.514 35.22 151.834 35.22C150.154 35.22 148.614 35.5467 147.214 36.2C145.814 36.8533 144.601 37.7867 143.574 39C142.594 40.1667 141.824 41.59 141.264 43.27C140.704 44.95 140.424 46.7933 140.424 48.8C140.424 50.76 140.704 52.58 141.264 54.26C141.824 55.8933 142.617 57.3167 143.644 58.53C144.671 59.6967 145.861 60.6067 147.214 61.26C148.614 61.9133 150.131 62.24 151.764 62.24ZM199.377 36.69C198.49 36.3167 197.44 36.13 196.227 36.13C194.92 36.13 193.637 36.41 192.377 36.97C191.164 37.53 190.067 38.37 189.087 39.49C188.154 40.61 187.384 42.0567 186.777 43.83C186.217 45.5567 185.937 47.61 185.937 49.99V67H179.637V30.6H185.727V38.51C186.147 37.39 186.707 36.2933 187.407 35.22C188.107 34.1467 188.924 33.2133 189.857 32.42C190.837 31.6267 191.957 30.9967 193.217 30.53C194.477 30.0167 195.877 29.76 197.417 29.76C198.117 29.76 198.794 29.8067 199.447 29.9C200.147 29.9467 200.754 30.04 201.267 30.18L199.377 36.69ZM219.267 67.84C217.027 67.84 214.904 67.3967 212.897 66.51C210.937 65.6233 209.21 64.3633 207.717 62.73C206.27 61.0967 205.127 59.1367 204.287 56.85C203.447 54.5167 203.027 51.9033 203.027 49.01C203.027 46.2567 203.447 43.7133 204.287 41.38C205.174 39 206.34 36.97 207.787 35.29C209.28 33.5633 211.007 32.21 212.967 31.23C214.927 30.25 217.004 29.76 219.197 29.76C221.624 29.76 223.7 30.25 225.427 31.23C227.2 32.21 228.577 33.2133 229.557 34.24V15.2H235.857V58.18C235.857 59.9533 236.277 61.12 237.117 61.68C238.004 62.1933 238.96 62.45 239.987 62.45L238.657 67.35C234.224 67.35 231.517 65.5767 230.537 62.03C229.464 63.5233 228.017 64.8767 226.197 66.09C224.377 67.2567 222.067 67.84 219.267 67.84ZM220.667 62.24C222.394 62.24 224.027 61.8433 225.567 61.05C227.154 60.21 228.484 59.1367 229.557 57.83V39.77C228.67 38.65 227.434 37.6233 225.847 36.69C224.307 35.71 222.557 35.22 220.597 35.22C218.917 35.22 217.377 35.57 215.977 36.27C214.624 36.97 213.457 37.9267 212.477 39.14C211.497 40.3533 210.75 41.8 210.237 43.48C209.724 45.1133 209.467 46.8867 209.467 48.8C209.467 50.76 209.747 52.5567 210.307 54.19C210.867 55.8233 211.637 57.2467 212.617 58.46C213.644 59.6267 214.834 60.56 216.187 61.26C217.587 61.9133 219.08 62.24 220.667 62.24ZM270.093 18.14C272.286 17.9067 274.433 17.7433 276.533 17.65C278.633 17.51 281.036 17.44 283.743 17.44C287.943 17.44 291.56 18.0933 294.593 19.4C297.626 20.7067 300.146 22.5033 302.153 24.79C304.16 27.0767 305.63 29.7367 306.563 32.77C307.543 35.8033 308.033 39.0233 308.033 42.43C308.033 45.8367 307.543 49.08 306.563 52.16C305.583 55.1933 304.066 57.8533 302.013 60.14C300.006 62.4267 297.416 64.2467 294.243 65.6C291.116 66.9067 287.36 67.56 282.973 67.56C280.313 67.56 277.98 67.49 275.973 67.35C274.013 67.2567 272.053 67.0933 270.093 66.86V18.14ZM283.533 23.18C282.18 23.18 280.943 23.2267 279.823 23.32C278.703 23.3667 277.676 23.4367 276.743 23.53V61.4C277.723 61.54 278.75 61.6333 279.823 61.68C280.896 61.7267 282.016 61.75 283.183 61.75C286.31 61.75 289.016 61.2833 291.303 60.35C293.59 59.37 295.456 58.04 296.903 56.36C298.396 54.6333 299.493 52.6033 300.193 50.27C300.893 47.89 301.243 45.2767 301.243 42.43C301.243 39.91 300.893 37.5067 300.193 35.22C299.493 32.8867 298.42 30.8333 296.973 29.06C295.526 27.24 293.683 25.8167 291.443 24.79C289.203 23.7167 286.566 23.18 283.533 23.18ZM321.098 51.39C321.518 54.7967 322.708 57.4567 324.668 59.37C326.628 61.2833 329.218 62.24 332.438 62.24C334.538 62.24 336.428 62.03 338.108 61.61C339.788 61.1433 341.398 60.56 342.938 59.86L344.408 65.25C342.728 66.0433 340.838 66.6733 338.738 67.14C336.638 67.6067 334.281 67.84 331.668 67.84C329.054 67.84 326.698 67.42 324.598 66.58C322.498 65.6933 320.701 64.4567 319.208 62.87C317.761 61.2367 316.641 59.2533 315.848 56.92C315.054 54.54 314.658 51.8333 314.658 48.8C314.658 46.0933 315.054 43.5733 315.848 41.24C316.641 38.9067 317.761 36.9 319.208 35.22C320.654 33.4933 322.381 32.1633 324.388 31.23C326.394 30.25 328.634 29.76 331.108 29.76C333.721 29.76 336.008 30.2033 337.968 31.09C339.928 31.9767 341.561 33.19 342.868 34.73C344.174 36.27 345.154 38.0667 345.808 40.12C346.461 42.1733 346.788 44.3433 346.788 46.63C346.788 48.2633 346.718 49.85 346.578 51.39H321.098ZM330.968 35.22C328.214 35.22 325.951 36.1533 324.178 38.02C322.451 39.8867 321.401 42.64 321.028 46.28H340.978C340.978 42.7333 340.091 40.0033 338.318 38.09C336.544 36.1767 334.094 35.22 330.968 35.22ZM354.694 58.81C355.907 59.8833 357.424 60.7467 359.244 61.4C361.111 62.0533 363.094 62.38 365.194 62.38C367.807 62.38 369.767 61.96 371.074 61.12C372.427 60.2333 373.104 59.1133 373.104 57.76C373.104 57.06 372.964 56.4067 372.684 55.8C372.451 55.1933 371.984 54.61 371.284 54.05C370.631 53.49 369.721 52.9533 368.554 52.44C367.387 51.88 365.871 51.2733 364.004 50.62C360.551 49.4533 357.984 48.0767 356.304 46.49C354.624 44.8567 353.784 42.6167 353.784 39.77C353.784 38.37 354.087 37.0633 354.694 35.85C355.347 34.6367 356.257 33.5867 357.424 32.7C358.637 31.7667 360.084 31.0433 361.764 30.53C363.491 30.0167 365.451 29.76 367.644 29.76C370.024 29.76 372.101 30.0167 373.874 30.53C375.694 30.9967 377.327 31.6033 378.774 32.35L377.024 37.53C375.764 36.7833 374.317 36.1767 372.684 35.71C371.097 35.2433 369.324 35.01 367.364 35.01C364.937 35.01 363.094 35.5 361.834 36.48C360.574 37.46 359.944 38.5333 359.944 39.7C359.944 40.26 360.037 40.7733 360.224 41.24C360.457 41.7067 360.854 42.15 361.414 42.57C361.974 42.99 362.721 43.41 363.654 43.83C364.587 44.25 365.754 44.6933 367.154 45.16C369.441 45.9533 371.377 46.77 372.964 47.61C374.551 48.4033 375.834 49.29 376.814 50.27C377.794 51.25 378.494 52.3233 378.914 53.49C379.334 54.61 379.544 55.87 379.544 57.27C379.544 58.9033 379.194 60.3733 378.494 61.68C377.794 62.9867 376.814 64.1067 375.554 65.04C374.294 65.9267 372.754 66.6033 370.934 67.07C369.161 67.5833 367.177 67.84 364.984 67.84C362.184 67.84 359.687 67.49 357.494 66.79C355.301 66.09 353.481 65.18 352.034 64.06L354.694 58.81ZM394.228 67H387.928V30.6H394.228V67ZM391.078 24.37C389.865 24.37 388.815 23.95 387.928 23.11C387.088 22.2233 386.668 21.1733 386.668 19.96C386.668 18.6067 387.065 17.5333 387.858 16.74C388.651 15.9467 389.725 15.55 391.078 15.55C392.291 15.55 393.318 15.9933 394.158 16.88C395.045 17.72 395.488 18.7467 395.488 19.96C395.488 21.3133 395.091 22.3867 394.298 23.18C393.505 23.9733 392.431 24.37 391.078 24.37ZM419.848 29.76C421.948 29.76 423.815 30.11 425.448 30.81C427.128 31.51 428.575 32.3733 429.788 33.4V30.6H435.528V66.16C435.528 69.1933 435.131 71.7833 434.338 73.93C433.545 76.0767 432.401 77.8267 430.908 79.18C429.461 80.58 427.711 81.6067 425.658 82.26C423.605 82.9133 421.318 83.24 418.798 83.24C416.605 83.24 414.505 82.9833 412.498 82.47C410.491 81.9567 408.695 81.1867 407.108 80.16L409.418 74.7C410.538 75.5867 411.845 76.31 413.338 76.87C414.831 77.4767 416.651 77.78 418.798 77.78C422.111 77.78 424.701 76.9167 426.568 75.19C428.481 73.4633 429.438 70.6633 429.438 66.79V62.31C428.505 63.43 427.151 64.5033 425.378 65.53C423.651 66.51 421.575 67 419.148 67C417.095 67 415.088 66.6033 413.128 65.81C411.168 64.97 409.441 63.78 407.948 62.24C406.455 60.6533 405.241 58.74 404.308 56.5C403.421 54.2133 402.978 51.6 402.978 48.66C402.978 45.9533 403.421 43.4567 404.308 41.17C405.195 38.8367 406.385 36.83 407.878 35.15C409.418 33.47 411.215 32.1633 413.268 31.23C415.321 30.25 417.515 29.76 419.848 29.76ZM420.548 61.4C422.415 61.4 424.095 60.98 425.588 60.14C427.081 59.3 428.295 58.32 429.228 57.2V38.16C428.155 37.4133 426.918 36.7367 425.518 36.13C424.118 35.5233 422.438 35.22 420.478 35.22C419.031 35.22 417.631 35.5233 416.278 36.13C414.971 36.69 413.805 37.53 412.778 38.65C411.751 39.77 410.935 41.1467 410.328 42.78C409.721 44.3667 409.418 46.21 409.418 48.31C409.418 50.3167 409.721 52.1367 410.328 53.77C410.935 55.3567 411.751 56.7333 412.778 57.9C413.805 59.02 414.971 59.8833 416.278 60.49C417.631 61.0967 419.055 61.4 420.548 61.4ZM452.465 36.69C453.772 34.73 455.429 33.0967 457.435 31.79C459.489 30.4367 461.915 29.76 464.715 29.76C468.822 29.76 471.879 30.9967 473.885 33.47C475.939 35.9433 476.965 39.21 476.965 43.27V67H470.665V43.97C470.665 41.31 470.059 39.21 468.845 37.67C467.632 36.0833 465.905 35.29 463.665 35.29C462.592 35.29 461.542 35.5 460.515 35.92C459.489 36.2933 458.485 36.83 457.505 37.53C456.572 38.23 455.685 39.0467 454.845 39.98C454.052 40.9133 453.329 41.8933 452.675 42.92V67H446.375V30.6H452.465V36.69ZM487.311 58.81C488.525 59.8833 490.041 60.7467 491.861 61.4C493.728 62.0533 495.711 62.38 497.811 62.38C500.425 62.38 502.385 61.96 503.691 61.12C505.045 60.2333 505.721 59.1133 505.721 57.76C505.721 57.06 505.581 56.4067 505.301 55.8C505.068 55.1933 504.601 54.61 503.901 54.05C503.248 53.49 502.338 52.9533 501.171 52.44C500.005 51.88 498.488 51.2733 496.621 50.62C493.168 49.4533 490.601 48.0767 488.921 46.49C487.241 44.8567 486.401 42.6167 486.401 39.77C486.401 38.37 486.705 37.0633 487.311 35.85C487.965 34.6367 488.875 33.5867 490.041 32.7C491.255 31.7667 492.701 31.0433 494.381 30.53C496.108 30.0167 498.068 29.76 500.261 29.76C502.641 29.76 504.718 30.0167 506.491 30.53C508.311 30.9967 509.945 31.6033 511.391 32.35L509.641 37.53C508.381 36.7833 506.935 36.1767 505.301 35.71C503.715 35.2433 501.941 35.01 499.981 35.01C497.555 35.01 495.711 35.5 494.451 36.48C493.191 37.46 492.561 38.5333 492.561 39.7C492.561 40.26 492.655 40.7733 492.841 41.24C493.075 41.7067 493.471 42.15 494.031 42.57C494.591 42.99 495.338 43.41 496.271 43.83C497.205 44.25 498.371 44.6933 499.771 45.16C502.058 45.9533 503.995 46.77 505.581 47.61C507.168 48.4033 508.451 49.29 509.431 50.27C510.411 51.25 511.111 52.3233 511.531 53.49C511.951 54.61 512.161 55.87 512.161 57.27C512.161 58.9033 511.811 60.3733 511.111 61.68C510.411 62.9867 509.431 64.1067 508.171 65.04C506.911 65.9267 505.371 66.6033 503.551 67.07C501.778 67.5833 499.795 67.84 497.601 67.84C494.801 67.84 492.305 67.49 490.111 66.79C487.918 66.09 486.098 65.18 484.651 64.06L487.311 58.81Z" fill="white"/>
</svg>
